<svg width="25" height="25" viewBox="0 0 25 25" fill="none" xmlns="http://www.w3.org/2000/svg">
<g id="inventory_2">
<mask id="mask0_295_3223" style="mask-type:alpha" maskUnits="userSpaceOnUse" x="0" y="0" width="25" height="25">
<rect id="Bounding box" x="0.40625" y="0.0727539" width="24.1796" height="24.1796" fill="#C8BCF6"/>
</mask>
<g mask="url(#mask0_295_3223)">
<path id="inventory_2_2" d="M3.42936 20.2226V8.83804C3.14391 8.65333 2.90463 8.41825 2.71153 8.1328C2.51843 7.84734 2.42188 7.51151 2.42188 7.12531V4.10286C2.42188 3.54874 2.61917 3.07439 3.01377 2.67979C3.40837 2.28519 3.88273 2.08789 4.43684 2.08789H20.5566C21.1107 2.08789 21.5851 2.28519 21.9797 2.67979C22.3743 3.07439 22.5716 3.54874 22.5716 4.10286V7.12531C22.5716 7.51151 22.475 7.84734 22.2819 8.1328C22.0888 8.41825 21.8495 8.65333 21.5641 8.83804V20.2226C21.5641 20.7767 21.3668 21.2511 20.9722 21.6457C20.5776 22.0403 20.1032 22.2376 19.5491 22.2376H5.44433C4.89021 22.2376 4.41585 22.0403 4.02126 21.6457C3.62666 21.2511 3.42936 20.7767 3.42936 20.2226ZM5.44433 9.14028V20.2226H19.5491V9.14028H5.44433ZM20.5566 7.12531V4.10286H4.43684V7.12531H20.5566ZM9.47426 14.1777H15.5192V12.1627H9.47426V14.1777Z" fill="#7B61FF"/>
</g>
</g>
</svg>
