<svg width="127" height="43" viewBox="0 0 127 43" fill="none" xmlns="http://www.w3.org/2000/svg">
<g id="Group 48097517">
<g id="Group 48097513">
<g id="Group 2022">
<path id="Subtract" fill-rule="evenodd" clip-rule="evenodd" d="M12.1572 25.9229C12.1572 27.0722 13.0879 27.9606 14.236 27.9072C15.3841 27.8539 16.3148 26.8789 16.3148 25.7296V20.219L22.4826 18.8802V34.5779C21.1814 34.8542 19.8281 35 18.439 35C8.25544 35 0 27.165 0 17.5C0 9.92853 5.06639 3.48012 12.1572 1.04181V17.0764L4.88298 18.6554C3.81578 18.887 3.1136 19.945 3.31461 21.0184C3.51562 22.0918 4.5437 22.7741 5.6109 22.5425L12.1572 21.1215V25.9229ZM26.6375 33.1794C32.7071 30.3152 36.8781 24.3699 36.8781 17.5C36.8781 7.83502 28.6227 0 18.439 0C17.7206 0 17.0118 0.0389953 16.3148 0.114878V16.1739L22.4826 14.8351V9.26366C22.4826 8.11508 23.4127 7.14073 24.5601 7.08739C25.7074 7.03404 26.6375 7.92189 26.6375 9.07047V13.9332L30.5895 13.0753C31.6567 12.8437 32.6848 13.5261 32.8858 14.5994C33.0868 15.6728 32.3846 16.7308 31.3174 16.9624L26.6375 17.9783V33.1794Z" fill="#FF5D25"/>
<g id="ohoh">
<path d="M51.6782 29.1243C50.0476 29.1243 48.5675 28.8507 47.2379 28.3035C45.9334 27.7325 44.9049 26.9473 44.1523 25.9481C43.3997 24.9488 43.0234 23.8187 43.0234 22.5578V17.5258C43.0234 16.241 43.3872 15.0752 44.1147 14.0284C44.8673 12.9815 45.8958 12.1607 47.2003 11.5659C48.5048 10.9473 49.9974 10.638 51.6782 10.638C53.359 10.638 54.8516 10.9473 56.1561 11.5659C57.4857 12.1607 58.5142 12.9815 59.2417 14.0284C59.9943 15.0752 60.3706 16.241 60.3706 17.5258V22.5578C60.3706 23.8187 59.9817 24.9488 59.2041 25.9481C58.4515 26.9473 57.4104 27.7325 56.0808 28.3035C54.7763 28.8507 53.3088 29.1243 51.6782 29.1243ZM51.6782 25.3057C52.9325 25.3057 53.9109 25.0321 54.6133 24.4849C55.3408 23.9377 55.7045 23.2001 55.7045 22.2723V17.7399C55.7045 16.7644 55.3408 15.9793 54.6133 15.3845C53.9109 14.7659 52.9325 14.4566 51.6782 14.4566C50.449 14.4566 49.4706 14.7659 48.7431 15.3845C48.0156 15.9793 47.6519 16.7644 47.6519 17.7399V22.2723C47.6519 23.2001 48.0156 23.9377 48.7431 24.4849C49.4706 25.0321 50.449 25.3057 51.6782 25.3057Z" fill="#2F2F2F"/>
<path d="M65.208 6.92651C65.208 5.83209 65.6094 4.98748 66.4122 4.39268C67.2149 3.79789 68.3689 3.50049 69.8741 3.50049V12.7793C69.5479 13.1124 69.2469 13.4931 68.971 13.9213L69.1967 14.0641C70.9277 11.7801 73.1353 10.638 75.8195 10.638C77.0989 10.638 78.2278 10.9116 79.2061 11.4589C80.1845 12.0061 80.9371 12.7555 81.4639 13.7072C82.0158 14.6589 82.2918 15.7295 82.2918 16.9191V26.412C82.2918 27.3637 81.9029 28.0537 81.1252 28.4819C80.3476 28.9102 79.1685 29.1243 77.5881 29.1243V17.5615C77.5881 16.6574 77.2996 15.9198 76.7226 15.3488C76.1707 14.7778 75.3554 14.4923 74.2767 14.4923C72.9973 14.4923 71.9437 14.873 71.1158 15.6343C70.288 16.3719 69.8741 17.2998 69.8741 18.418V26.412C69.8741 27.3637 69.4852 28.0537 68.7075 28.4819C67.9299 28.9102 66.7634 29.1243 65.208 29.1243V6.92651Z" fill="#2F2F2F"/>
<path d="M95.3856 29.1243C93.755 29.1243 92.2749 28.8507 90.9453 28.3035C89.6409 27.7325 88.6123 26.9473 87.8597 25.9481C87.1071 24.9488 86.7308 23.8187 86.7308 22.5578V17.5258C86.7308 16.241 87.0946 15.0752 87.8221 14.0284C88.5747 12.9815 89.6032 12.1607 90.9077 11.5659C92.2122 10.9473 93.7048 10.638 95.3856 10.638C97.0664 10.638 98.559 10.9473 99.8635 11.5659C101.193 12.1607 102.222 12.9815 102.949 14.0284C103.702 15.0752 104.078 16.241 104.078 17.5258V22.5578C104.078 23.8187 103.689 24.9488 102.911 25.9481C102.159 26.9473 101.118 27.7325 99.7882 28.3035C98.4838 28.8507 97.0162 29.1243 95.3856 29.1243ZM95.3856 25.3057C96.6399 25.3057 97.6183 25.0321 98.3207 24.4849C99.0482 23.9377 99.4119 23.2001 99.4119 22.2723V17.7399C99.4119 16.7644 99.0482 15.9793 98.3207 15.3845C97.6183 14.7659 96.6399 14.4566 95.3856 14.4566C94.1564 14.4566 93.178 14.7659 92.4505 15.3845C91.723 15.9793 91.3593 16.7644 91.3593 17.7399V22.2723C91.3593 23.2001 91.723 23.9377 92.4505 24.4849C93.178 25.0321 94.1564 25.3057 95.3856 25.3057Z" fill="#2F2F2F"/>
<path d="M108.915 6.92651C108.915 5.83209 109.317 4.98748 110.12 4.39268C110.922 3.79789 112.076 3.50049 113.581 3.50049V12.7793C113.255 13.1124 112.954 13.4931 112.678 13.9213L112.904 14.0641C114.635 11.7801 116.843 10.638 119.527 10.638C120.806 10.638 121.935 10.9116 122.914 11.4589C123.892 12.0061 124.645 12.7555 125.171 13.7072C125.723 14.6589 125.999 15.7295 125.999 16.9191V26.412C125.999 27.3637 125.61 28.0537 124.833 28.4819C124.055 28.9102 122.876 29.1243 121.295 29.1243V17.5615C121.295 16.6574 121.007 15.9198 120.43 15.3488C119.878 14.7778 119.063 14.4923 117.984 14.4923C116.705 14.4923 115.651 14.873 114.823 15.6343C113.995 16.3719 113.581 17.2998 113.581 18.418V26.412C113.581 27.3637 113.193 28.0537 112.415 28.4819C111.637 28.9102 110.471 29.1243 108.915 29.1243V6.92651Z" fill="#2F2F2F"/>
</g>
</g>
<g id="TIME SHEET">
<path d="M76.43 35.1V36.47H74.57V42.12H72.86V36.47H71V35.1H76.43Z" fill="#2F2F2F"/>
<path d="M78.9982 35.1V42.12H77.2882V35.1H78.9982Z" fill="#2F2F2F"/>
<path d="M88.1874 35.1V42.12H86.4774V37.91L84.9074 42.12H83.5274L81.9474 37.9V42.12H80.2374V35.1H82.2574L84.2274 39.96L86.1774 35.1H88.1874Z" fill="#2F2F2F"/>
<path d="M91.1271 36.47V37.89H93.4171V39.21H91.1271V40.75H93.7171V42.12H89.4171V35.1H93.7171V36.47H91.1271Z" fill="#2F2F2F"/>
<path d="M99.4864 42.19C98.9731 42.19 98.5131 42.1067 98.1064 41.94C97.6997 41.7733 97.3731 41.5267 97.1264 41.2C96.8864 40.8733 96.7597 40.48 96.7464 40.02H98.5664C98.5931 40.28 98.6831 40.48 98.8364 40.62C98.9897 40.7533 99.1897 40.82 99.4364 40.82C99.6897 40.82 99.8897 40.7633 100.036 40.65C100.183 40.53 100.256 40.3667 100.256 40.16C100.256 39.9867 100.196 39.8433 100.076 39.73C99.9631 39.6167 99.8197 39.5233 99.6464 39.45C99.4797 39.3767 99.2397 39.2933 98.9264 39.2C98.4731 39.06 98.1031 38.92 97.8164 38.78C97.5297 38.64 97.2831 38.4333 97.0764 38.16C96.8697 37.8867 96.7664 37.53 96.7664 37.09C96.7664 36.4367 97.0031 35.9267 97.4764 35.56C97.9497 35.1867 98.5664 35 99.3264 35C100.1 35 100.723 35.1867 101.196 35.56C101.67 35.9267 101.923 36.44 101.956 37.1H100.106C100.093 36.8733 100.01 36.6967 99.8564 36.57C99.7031 36.4367 99.5064 36.37 99.2664 36.37C99.0597 36.37 98.8931 36.4267 98.7664 36.54C98.6397 36.6467 98.5764 36.8033 98.5764 37.01C98.5764 37.2367 98.6831 37.4133 98.8964 37.54C99.1097 37.6667 99.4431 37.8033 99.8964 37.95C100.35 38.1033 100.716 38.25 100.996 38.39C101.283 38.53 101.53 38.7333 101.736 39C101.943 39.2667 102.046 39.61 102.046 40.03C102.046 40.43 101.943 40.7933 101.736 41.12C101.536 41.4467 101.243 41.7067 100.856 41.9C100.47 42.0933 100.013 42.19 99.4864 42.19Z" fill="#FF5D25"/>
<path d="M109.179 35.1V42.12H107.469V39.23H104.809V42.12H103.099V35.1H104.809V37.85H107.469V35.1H109.179Z" fill="#FF5D25"/>
<path d="M112.123 36.47V37.89H114.413V39.21H112.123V40.75H114.713V42.12H110.413V35.1H114.713V36.47H112.123Z" fill="#FF5D25"/>
<path d="M117.533 36.47V37.89H119.823V39.21H117.533V40.75H120.123V42.12H115.823V35.1H120.123V36.47H117.533Z" fill="#FF5D25"/>
<path d="M126.284 35.1V36.47H124.424V42.12H122.714V36.47H120.854V35.1H126.284Z" fill="#FF5D25"/>
</g>
</g>
</g>
</svg>
